<?xml version="1.0" encoding="UTF-8" ?>
<!DOCTYPE svg PUBLIC "-//W3C//DTD SVG 1.1//EN" "http://www.w3.org/Graphics/SVG/1.1/DTD/svg11.dtd">
<svg width="578pt" height="578pt" viewBox="0 0 578 578" version="1.1" xmlns="http://www.w3.org/2000/svg">
<g id="#de2910ff">
<path fill="#de2910" opacity="1.00" d=" M 286.34 0.00 L 291.63 0.00 C 330.50 0.37 369.29 8.54 404.89 24.19 C 449.10 43.52 488.26 74.17 517.73 112.36 C 539.56 140.54 556.10 172.80 566.18 206.99 C 573.48 231.49 577.24 256.97 578.00 282.50 L 578.00 295.49 C 576.96 335.80 567.73 375.93 550.40 412.38 C 523.83 468.86 478.38 516.19 423.04 545.09 C 382.71 566.32 337.25 577.60 291.68 578.00 L 286.33 578.00 C 247.22 577.63 208.18 569.35 172.41 553.50 C 140.62 539.50 111.45 519.64 86.65 495.33 C 44.54 454.17 15.44 399.89 4.86 341.94 C 1.97 326.63 0.54 311.09 0.00 295.54 L 0.00 282.50 C 0.93 248.75 7.42 215.11 19.81 183.67 C 42.00 126.68 82.92 77.26 134.64 44.65 C 179.72 15.97 232.93 0.42 286.34 0.00 M 297.38 48.78 C 290.70 45.92 284.02 43.07 277.32 40.26 C 281.01 46.52 284.81 52.73 288.52 58.98 C 283.78 64.49 278.95 69.92 274.23 75.46 C 281.31 73.88 288.37 72.23 295.43 70.58 C 299.29 76.77 302.93 83.09 306.75 89.31 C 307.42 82.07 308.02 74.82 308.68 67.57 C 315.65 65.75 322.82 64.67 329.68 62.45 C 323.05 59.72 316.46 56.88 309.87 54.06 C 310.50 46.80 311.15 39.54 311.78 32.28 C 306.97 37.77 302.22 43.31 297.38 48.78 M 149.63 61.16 C 142.91 81.46 136.40 101.84 129.76 122.16 C 107.97 122.21 86.18 122.16 64.39 122.19 C 81.94 135.18 99.86 147.70 117.27 160.87 C 110.38 181.49 103.78 202.21 97.06 222.88 C 114.72 210.10 132.34 197.24 150.00 184.44 C 167.65 197.24 185.27 210.08 202.92 222.88 C 196.51 202.92 190.03 182.99 183.50 163.08 C 183.23 162.02 182.41 160.50 183.84 159.87 C 201.07 147.27 218.40 134.80 235.62 122.19 C 213.83 122.15 192.03 122.22 170.23 122.16 C 163.60 101.82 157.08 81.44 150.36 61.13 C 150.18 61.14 149.81 61.15 149.63 61.16 M 346.77 93.01 C 347.73 100.23 348.84 107.42 349.82 114.63 C 343.46 117.89 336.82 120.66 330.66 124.29 C 337.68 125.65 344.74 126.73 351.76 128.04 C 352.76 135.09 353.74 142.14 354.79 149.18 C 358.69 143.18 361.57 136.58 365.07 130.34 C 372.25 131.55 379.41 132.86 386.59 134.05 C 381.55 128.79 376.43 123.62 371.41 118.34 C 374.80 111.92 378.23 105.51 381.58 99.07 C 375.02 102.21 368.53 105.47 361.99 108.65 C 356.89 103.46 351.87 98.19 346.77 93.01 M 358.70 180.72 C 356.73 187.45 354.86 194.20 352.90 200.94 C 345.63 201.21 338.36 201.46 331.09 201.73 C 337.07 205.87 343.17 209.85 349.17 213.96 C 347.21 220.97 345.16 227.95 343.21 234.96 C 348.92 230.49 354.67 226.07 360.31 221.51 C 366.45 225.45 372.40 229.68 378.52 233.65 C 376.09 226.81 373.55 220.00 371.07 213.17 C 376.77 208.67 382.54 204.25 388.20 199.71 C 380.90 199.85 373.62 200.33 366.32 200.37 C 363.76 193.84 362.11 186.83 358.70 180.72 M 296.94 258.89 C 290.16 256.37 283.42 253.72 276.60 251.28 C 280.47 257.39 284.52 263.38 288.49 269.42 C 284.02 275.16 279.38 280.77 274.91 286.51 C 281.93 284.65 288.91 282.67 295.93 280.78 C 299.96 286.83 303.89 292.95 307.95 298.99 C 308.33 291.72 308.61 284.45 309.01 277.18 C 316.01 275.25 323.03 273.36 330.03 271.40 C 323.28 268.83 316.55 266.19 309.73 263.81 C 309.78 256.48 310.36 249.17 310.62 241.85 C 306.02 247.50 301.53 253.23 296.94 258.89 Z" />
</g>
<g id="#ffde00ff">
<path fill="#ffde00" opacity="1.00" d=" M 297.38 48.78 C 302.22 43.31 306.97 37.77 311.78 32.28 C 311.15 39.54 310.50 46.80 309.87 54.06 C 316.46 56.88 323.05 59.72 329.68 62.45 C 322.82 64.67 315.65 65.75 308.68 67.57 C 308.02 74.82 307.42 82.07 306.75 89.31 C 302.93 83.09 299.29 76.77 295.43 70.58 C 288.37 72.23 281.31 73.88 274.23 75.46 C 278.95 69.92 283.78 64.49 288.52 58.98 C 284.81 52.73 281.01 46.52 277.32 40.26 C 284.02 43.07 290.70 45.92 297.38 48.78 Z" />
<path fill="#ffde00" opacity="1.00" d=" M 149.63 61.16 C 149.81 61.15 150.18 61.14 150.36 61.13 C 157.08 81.44 163.60 101.82 170.23 122.16 C 192.03 122.22 213.83 122.15 235.62 122.19 C 218.40 134.80 201.07 147.27 183.84 159.87 C 182.41 160.50 183.23 162.02 183.50 163.08 C 190.03 182.99 196.51 202.92 202.92 222.88 C 185.27 210.08 167.65 197.24 150.00 184.44 C 132.34 197.24 114.72 210.10 97.06 222.88 C 103.78 202.21 110.38 181.49 117.27 160.87 C 99.86 147.70 81.94 135.18 64.39 122.19 C 86.18 122.16 107.97 122.21 129.76 122.16 C 136.40 101.84 142.91 81.46 149.63 61.16 Z" />
<path fill="#ffde00" opacity="1.00" d=" M 346.77 93.01 C 351.87 98.19 356.89 103.46 361.99 108.65 C 368.53 105.47 375.02 102.21 381.58 99.07 C 378.23 105.51 374.80 111.92 371.41 118.34 C 376.43 123.62 381.55 128.79 386.59 134.05 C 379.41 132.86 372.25 131.55 365.07 130.34 C 361.57 136.58 358.69 143.18 354.79 149.18 C 353.74 142.14 352.76 135.09 351.76 128.04 C 344.74 126.73 337.68 125.65 330.66 124.29 C 336.82 120.66 343.46 117.89 349.82 114.63 C 348.84 107.42 347.73 100.23 346.77 93.01 Z" />
<path fill="#ffde00" opacity="1.00" d=" M 358.70 180.72 C 362.11 186.83 363.76 193.84 366.32 200.37 C 373.62 200.33 380.90 199.85 388.20 199.71 C 382.54 204.25 376.77 208.67 371.07 213.17 C 373.55 220.00 376.09 226.81 378.52 233.65 C 372.40 229.68 366.45 225.45 360.31 221.51 C 354.67 226.07 348.92 230.49 343.21 234.96 C 345.16 227.95 347.21 220.97 349.17 213.96 C 343.17 209.85 337.07 205.87 331.09 201.73 C 338.36 201.46 345.63 201.21 352.90 200.94 C 354.86 194.20 356.73 187.45 358.70 180.72 Z" />
<path fill="#ffde00" opacity="1.00" d=" M 296.94 258.89 C 301.53 253.23 306.02 247.50 310.62 241.85 C 310.36 249.17 309.78 256.48 309.73 263.81 C 316.55 266.19 323.28 268.83 330.03 271.40 C 323.03 273.36 316.01 275.25 309.01 277.18 C 308.61 284.45 308.33 291.72 307.95 298.99 C 303.89 292.95 299.96 286.83 295.93 280.78 C 288.91 282.67 281.93 284.65 274.91 286.51 C 279.38 280.77 284.02 275.16 288.49 269.42 C 284.52 263.38 280.47 257.39 276.60 251.28 C 283.42 253.72 290.16 256.37 296.94 258.89 Z" />
</g>
</svg>
