<?xml version="1.0" encoding="UTF-8" ?>
<!DOCTYPE svg PUBLIC "-//W3C//DTD SVG 1.1//EN" "http://www.w3.org/Graphics/SVG/1.1/DTD/svg11.dtd">
<svg width="287pt" height="287pt" viewBox="0 0 287 287" version="1.1" xmlns="http://www.w3.org/2000/svg">
<g id="#cf142bff">
<path fill="#cf142b" opacity="1.00" d=" M 141.22 0.00 L 145.75 0.00 C 155.07 0.24 164.38 1.19 173.50 3.18 C 173.58 40.05 173.54 76.92 173.52 113.79 C 210.32 113.78 247.12 113.79 283.92 113.78 C 285.68 122.16 286.58 130.70 287.00 139.25 L 287.00 147.81 C 286.56 156.70 285.59 165.57 283.70 174.27 C 246.98 174.26 210.25 174.27 173.52 174.27 C 173.56 210.79 173.54 247.31 173.53 283.83 C 164.08 285.87 154.43 286.84 144.77 287.00 L 142.20 287.00 C 132.58 286.83 122.97 285.88 113.56 283.85 C 113.49 247.32 113.54 210.79 113.54 174.26 C 76.79 174.28 40.05 174.27 3.30 174.26 C 1.34 165.20 0.33 155.97 0.00 146.72 L 0.00 140.28 C 0.33 131.38 1.25 122.50 3.09 113.78 C 39.91 113.75 76.75 113.84 113.57 113.74 C 113.48 76.88 113.52 40.02 113.56 3.16 C 122.65 1.19 131.93 0.24 141.22 0.00 Z" />
<path fill="#cf142b" opacity="1.00" d=" M 200.73 92.96 C 221.16 82.88 241.49 72.57 261.87 62.40 C 265.70 67.91 269.08 73.72 272.08 79.72 C 262.98 84.37 253.80 88.86 244.68 93.49 C 242.97 94.55 240.92 94.14 239.02 94.21 C 225.94 94.22 212.87 94.12 199.80 94.27 L 200.73 92.96 Z" />
<path fill="#cf142b" opacity="1.00" d=" M 15.02 79.54 C 22.52 83.53 30.22 87.12 37.76 91.01 C 39.58 91.98 41.79 92.44 43.06 94.20 C 31.61 94.20 20.15 94.19 8.70 94.20 C 10.51 89.19 12.70 84.33 15.02 79.54 Z" />
<path fill="#cf142b" opacity="1.00" d=" M 43.26 194.29 C 57.82 193.80 72.45 194.77 87.00 193.75 C 86.83 194.11 86.51 194.85 86.35 195.22 C 66.11 205.21 45.94 215.37 25.77 225.52 C 21.91 220.06 18.48 214.30 15.47 208.34 C 24.58 203.37 34.00 198.96 43.26 194.29 Z" />
<path fill="#cf142b" opacity="1.00" d=" M 245.00 193.73 C 255.88 194.69 266.83 193.96 277.74 194.19 C 275.96 198.99 273.87 203.67 271.58 208.26 C 262.92 203.88 254.25 199.51 245.52 195.28 C 245.39 194.89 245.13 194.12 245.00 193.73 Z" />
</g>
<g id="#ffffffff">
<path fill="#ffffff" opacity="1.00" d=" M 93.64 8.94 C 100.13 6.52 106.79 4.59 113.56 3.16 C 113.52 40.02 113.48 76.88 113.57 113.74 C 76.75 113.84 39.91 113.75 3.09 113.78 C 4.52 107.14 6.38 100.59 8.70 94.20 C 20.15 94.19 31.61 94.20 43.06 94.20 C 41.79 92.44 39.58 91.98 37.76 91.01 C 30.22 87.12 22.52 83.53 15.02 79.54 C 19.48 70.54 24.95 62.06 31.19 54.20 C 49.72 63.51 68.28 72.77 86.81 82.07 C 89.06 83.12 91.14 84.69 93.66 85.01 C 93.59 59.66 93.62 34.30 93.64 8.94 Z" />
<path fill="#ffffff" opacity="1.00" d=" M 173.50 3.18 C 180.29 4.61 186.96 6.55 193.46 8.97 C 193.48 34.31 193.53 59.64 193.43 84.98 C 195.91 84.75 197.93 83.19 200.13 82.18 C 218.69 72.85 237.28 63.58 255.85 54.25 C 257.98 56.87 259.93 59.63 261.87 62.40 C 241.49 72.57 221.16 82.88 200.73 92.96 L 199.80 94.27 C 212.87 94.12 225.94 94.22 239.02 94.21 C 240.92 94.14 242.97 94.55 244.68 93.49 C 253.80 88.86 262.98 84.37 272.08 79.72 C 277.40 90.53 281.41 101.99 283.92 113.78 C 247.12 113.79 210.32 113.78 173.52 113.79 C 173.54 76.92 173.58 40.05 173.50 3.18 Z" />
<path fill="#ffffff" opacity="1.00" d=" M 3.30 174.26 C 40.05 174.27 76.79 174.28 113.54 174.26 C 113.54 210.79 113.49 247.32 113.56 283.85 C 106.79 282.41 100.13 280.48 93.64 278.07 C 93.61 253.05 93.61 228.02 93.65 203.00 C 91.41 203.39 89.52 204.70 87.53 205.69 C 68.99 215.03 50.36 224.20 31.86 233.62 C 29.70 231.02 27.71 228.29 25.77 225.52 C 45.94 215.37 66.11 205.21 86.35 195.22 C 86.51 194.85 86.83 194.11 87.00 193.75 C 72.45 194.77 57.82 193.80 43.26 194.29 C 34.00 198.96 24.58 203.37 15.47 208.34 C 9.97 197.56 5.92 186.07 3.30 174.26 Z" />
<path fill="#ffffff" opacity="1.00" d=" M 173.52 174.27 C 210.25 174.27 246.98 174.26 283.70 174.27 C 282.17 181.03 280.22 187.71 277.74 194.19 C 266.83 193.96 255.88 194.69 245.00 193.73 C 245.13 194.12 245.39 194.89 245.52 195.28 C 254.25 199.51 262.92 203.88 271.58 208.26 C 267.07 217.23 261.53 225.67 255.26 233.51 C 237.08 224.54 218.99 215.37 200.85 206.33 C 198.39 205.21 196.16 203.49 193.45 203.02 C 193.50 228.02 193.50 253.03 193.46 278.03 C 186.97 280.45 180.30 282.38 173.53 283.83 C 173.54 247.31 173.56 210.79 173.52 174.27 Z" />
</g>
<g id="#00247dff">
<path fill="#00247d" opacity="1.00" d=" M 31.19 54.20 C 47.38 33.82 69.21 17.94 93.64 8.94 C 93.62 34.30 93.59 59.66 93.66 85.01 C 91.14 84.69 89.06 83.12 86.81 82.07 C 68.28 72.77 49.72 63.51 31.19 54.20 Z" />
<path fill="#00247d" opacity="1.00" d=" M 193.46 8.97 C 217.86 17.99 239.68 33.87 255.85 54.25 C 237.28 63.58 218.69 72.85 200.13 82.18 C 197.93 83.19 195.91 84.75 193.43 84.98 C 193.53 59.64 193.48 34.31 193.46 8.97 Z" />
<path fill="#00247d" opacity="1.00" d=" M 87.53 205.69 C 89.52 204.70 91.41 203.39 93.65 203.00 C 93.61 228.02 93.61 253.05 93.64 278.07 C 69.55 269.18 47.96 253.62 31.86 233.62 C 50.36 224.20 68.99 215.03 87.53 205.69 Z" />
<path fill="#00247d" opacity="1.00" d=" M 193.45 203.02 C 196.16 203.49 198.39 205.21 200.85 206.33 C 218.99 215.37 237.08 224.54 255.26 233.51 C 239.14 253.52 217.57 269.12 193.46 278.03 C 193.50 253.03 193.50 228.02 193.45 203.02 Z" />
</g>
</svg>
