<?xml version="1.0" encoding="UTF-8" ?>
<!DOCTYPE svg PUBLIC "-//W3C//DTD SVG 1.1//EN" "http://www.w3.org/Graphics/SVG/1.1/DTD/svg11.dtd">
<svg width="757pt" height="221pt" viewBox="0 0 757 221" version="1.1" xmlns="http://www.w3.org/2000/svg">
<g id="#ffffffff">
<path fill="#ffffff" opacity="1.00" d=" M 26.08 22.17 C 59.25 22.16 92.41 22.19 125.58 22.15 C 125.57 35.31 125.53 48.46 125.60 61.61 C 92.43 61.59 59.25 61.65 26.08 61.55 C 26.11 48.42 26.11 35.30 26.08 22.17 Z" />
<path fill="#ffffff" opacity="1.00" d=" M 146.00 22.09 C 159.22 22.26 172.45 22.14 185.68 22.16 C 185.80 35.40 185.78 48.65 185.70 61.89 C 172.47 61.92 159.23 61.83 146.00 61.94 C 146.00 48.66 146.00 35.38 146.00 22.09 Z" />
<path fill="#ffffff" opacity="1.00" d=" M 566.23 52.78 C 567.89 52.76 569.57 52.75 571.25 52.74 C 571.21 58.61 571.33 64.48 571.18 70.36 C 575.24 63.37 586.89 62.88 591.38 69.61 C 592.82 71.76 593.34 74.40 593.27 76.96 C 593.24 83.56 593.25 90.15 593.25 96.75 C 591.57 96.75 589.91 96.75 588.25 96.75 C 588.16 89.82 588.43 82.87 588.13 75.95 C 587.76 69.37 578.80 67.52 574.40 71.36 C 572.12 73.16 571.27 76.15 571.27 78.94 C 571.18 84.89 571.33 90.84 571.21 96.79 C 569.54 96.76 567.89 96.75 566.25 96.73 C 566.24 82.08 566.28 67.43 566.23 52.78 Z" />
<path fill="#ffffff" opacity="1.00" d=" M 244.01 56.83 C 250.22 52.56 259.42 52.55 265.29 57.46 C 267.77 59.52 268.90 62.66 269.34 65.77 C 267.57 65.76 265.81 65.75 264.06 65.73 C 262.96 58.26 252.92 56.58 247.52 60.47 C 244.35 62.50 243.95 67.89 247.42 69.84 C 253.60 73.42 261.72 72.77 267.16 77.82 C 272.07 83.01 269.86 92.49 263.44 95.43 C 256.31 98.82 246.30 98.41 240.93 92.03 C 239.19 90.10 238.67 87.48 238.16 85.02 C 239.92 85.00 241.69 85.00 243.46 85.00 C 244.84 92.98 255.73 94.77 261.61 90.68 C 264.97 88.56 265.29 83.14 262.04 80.80 C 256.19 76.92 248.23 77.82 242.76 73.21 C 237.74 69.04 238.73 60.36 244.01 56.83 Z" />
<path fill="#ffffff" opacity="1.00" d=" M 394.30 54.29 C 396.58 52.31 400.63 55.09 399.31 57.91 C 398.56 60.78 394.13 60.69 393.25 58.01 C 392.51 56.64 393.27 55.23 394.30 54.29 Z" />
<path fill="#ffffff" opacity="1.00" d=" M 472.02 54.48 C 480.76 54.52 489.51 54.48 498.25 54.50 C 498.25 56.08 498.24 57.67 498.25 59.25 C 491.25 59.25 484.25 59.25 477.25 59.25 C 477.25 63.75 477.25 68.25 477.25 72.75 C 483.92 72.75 490.58 72.75 497.25 72.75 C 497.24 74.33 497.25 75.92 497.25 77.50 C 490.58 77.50 483.92 77.51 477.25 77.50 C 477.25 82.33 477.25 87.16 477.25 92.00 C 484.24 92.00 491.23 92.00 498.23 92.00 C 498.24 93.56 498.27 95.11 498.31 96.67 C 489.54 96.85 480.77 96.70 472.00 96.75 C 472.01 82.66 471.98 68.57 472.02 54.48 Z" />
<path fill="#ffffff" opacity="1.00" d=" M 408.25 58.00 C 409.99 58.00 411.74 58.00 413.50 58.00 C 413.50 60.42 413.50 62.83 413.51 65.25 C 415.50 65.25 417.50 65.25 419.51 65.25 C 419.50 66.67 419.50 68.08 419.50 69.50 C 417.50 69.50 415.50 69.50 413.50 69.50 C 413.57 76.31 413.36 83.12 413.59 89.92 C 413.99 92.84 417.38 92.51 419.53 92.58 C 419.50 94.04 419.46 95.49 419.43 96.95 C 415.40 97.36 409.28 97.04 408.66 91.87 C 407.76 84.46 408.48 76.95 408.25 69.51 C 406.83 69.50 405.41 69.50 404.00 69.50 C 403.99 68.08 404.00 66.66 404.01 65.24 C 405.42 65.25 406.83 65.25 408.25 65.25 C 408.25 62.84 408.25 60.42 408.25 58.00 Z" />
<path fill="#ffffff" opacity="1.00" d=" M 277.79 69.89 C 282.89 63.03 295.03 63.12 299.70 70.41 C 302.07 73.85 302.40 78.19 302.28 82.25 C 294.74 82.26 287.20 82.24 279.66 82.26 C 279.57 85.45 280.56 88.82 283.21 90.80 C 287.53 93.96 294.81 92.92 297.15 87.77 C 298.79 87.75 300.43 87.75 302.08 87.75 C 300.48 95.21 291.71 98.37 284.93 96.63 C 279.45 95.46 275.39 90.40 274.68 84.97 C 274.09 79.82 274.36 74.07 277.79 69.89 M 281.66 72.61 C 280.35 74.20 279.93 76.26 279.54 78.23 C 285.42 78.27 291.30 78.25 297.18 78.24 C 296.82 76.30 296.52 74.26 295.29 72.64 C 292.26 68.20 284.75 68.26 281.66 72.61 Z" />
<path fill="#ffffff" opacity="1.00" d=" M 311.39 68.45 C 318.47 61.53 333.14 64.94 334.43 75.48 C 332.78 75.49 331.14 75.50 329.49 75.50 C 328.01 68.61 317.75 67.29 314.07 72.97 C 310.84 77.80 310.90 84.92 314.50 89.53 C 318.50 94.50 327.84 93.18 329.55 86.72 C 331.18 86.74 332.82 86.76 334.46 86.79 C 333.10 95.77 321.90 99.45 314.42 95.61 C 309.34 93.20 306.64 87.43 306.72 81.98 C 306.43 77.12 307.62 71.81 311.39 68.45 Z" />
<path fill="#ffffff" opacity="1.00" d=" M 339.73 65.28 C 341.48 65.26 343.23 65.25 344.99 65.23 C 345.09 72.49 344.83 79.76 345.11 87.00 C 345.76 91.47 350.94 93.42 354.91 92.24 C 358.73 91.47 361.25 87.66 361.19 83.88 C 361.35 77.67 361.20 71.46 361.25 65.25 C 362.91 65.25 364.58 65.25 366.25 65.25 C 366.25 75.75 366.25 86.25 366.25 96.75 C 364.66 96.75 363.07 96.75 361.48 96.75 C 361.49 94.99 361.51 93.24 361.56 91.48 C 358.25 97.24 350.12 98.61 344.60 95.40 C 341.36 93.50 339.85 89.61 339.77 85.99 C 339.69 79.09 339.79 72.19 339.73 65.28 Z" />
<path fill="#ffffff" opacity="1.00" d=" M 378.37 70.32 C 379.85 66.29 384.11 64.26 388.25 64.96 C 388.25 66.61 388.25 68.26 388.26 69.91 C 384.42 68.95 379.72 70.73 379.01 74.98 C 378.40 82.20 378.92 89.49 378.75 96.75 C 377.08 96.75 375.41 96.75 373.75 96.75 C 373.74 86.25 373.75 75.75 373.75 65.25 C 375.34 65.25 376.94 65.25 378.54 65.26 C 378.51 66.95 378.45 68.63 378.37 70.32 Z" />
<path fill="#ffffff" opacity="1.00" d=" M 393.75 65.25 C 395.41 65.25 397.08 65.25 398.75 65.25 C 398.75 75.75 398.75 86.25 398.75 96.75 C 397.08 96.75 395.42 96.75 393.76 96.76 C 393.73 86.26 393.75 75.75 393.75 65.25 Z" />
<path fill="#ffffff" opacity="1.00" d=" M 422.96 65.23 C 424.77 65.24 426.59 65.26 428.42 65.28 C 430.99 73.19 433.80 81.01 436.33 88.93 C 436.78 89.77 436.75 91.14 437.59 91.67 C 439.98 82.72 443.32 74.06 446.13 65.23 C 447.93 65.25 449.73 65.25 451.54 65.24 C 447.77 75.33 444.07 85.44 440.35 95.54 C 439.04 99.01 437.91 102.68 435.51 105.57 C 433.23 108.14 429.44 108.47 426.24 108.11 C 426.24 106.68 426.25 105.24 426.26 103.81 C 427.86 103.63 429.70 104.08 431.16 103.14 C 433.28 101.72 433.75 99.03 434.66 96.83 C 430.76 86.29 426.89 75.75 422.96 65.23 Z" />
<path fill="#ffffff" opacity="1.00" d=" M 503.00 65.25 C 504.90 65.25 506.79 65.25 508.70 65.25 C 511.24 69.23 513.75 73.25 516.43 77.14 C 518.90 73.15 521.48 69.22 523.99 65.25 C 525.88 65.25 527.77 65.25 529.68 65.25 C 526.12 70.40 522.65 75.60 519.00 80.68 C 522.51 86.04 526.05 91.39 529.58 96.75 C 527.68 96.75 525.79 96.75 523.91 96.76 C 521.28 92.74 518.89 88.56 516.11 84.65 C 513.62 88.70 510.98 92.64 508.51 96.71 C 506.58 96.74 504.64 96.74 502.71 96.73 C 506.35 91.49 509.97 86.24 513.54 80.95 C 510.06 75.70 506.45 70.53 503.00 65.25 Z" />
<path fill="#ffffff" opacity="1.00" d=" M 537.96 67.93 C 545.25 61.69 559.18 65.24 560.43 75.48 C 558.63 75.02 555.46 76.74 554.89 74.13 C 552.64 68.23 543.38 67.86 540.08 72.96 C 536.94 77.61 536.94 84.36 540.08 89.00 C 543.80 94.53 553.78 93.44 555.55 86.72 C 557.18 86.74 558.82 86.76 560.46 86.79 C 559.06 96.03 547.28 99.63 539.80 95.28 C 534.77 92.54 532.43 86.52 532.71 81.01 C 532.50 76.18 534.10 71.04 537.96 67.93 Z" />
<path fill="#ffffff" opacity="1.00" d=" M 600.56 74.22 C 601.83 64.76 614.56 62.40 621.39 67.38 C 623.78 69.09 625.10 72.05 625.00 74.97 C 625.02 82.23 624.98 89.49 625.00 96.75 C 623.40 96.75 621.82 96.75 620.23 96.75 C 620.24 94.89 620.26 93.04 620.32 91.19 C 616.94 97.12 608.52 98.85 602.93 95.12 C 598.38 92.13 597.82 84.55 602.37 81.29 C 607.56 77.81 614.15 78.71 620.07 78.20 C 619.94 75.73 620.23 72.72 618.10 70.96 C 614.05 68.09 607.08 69.13 605.41 74.28 C 603.79 74.26 602.17 74.24 600.56 74.22 M 606.85 83.85 C 603.53 85.27 603.74 90.60 607.10 91.84 C 611.05 93.40 616.45 92.59 618.83 88.75 C 620.13 86.83 619.93 84.40 620.09 82.20 C 615.68 82.69 610.99 82.07 606.85 83.85 Z" />
<path fill="#ffffff" opacity="1.00" d=" M 632.25 65.25 C 633.83 65.25 635.41 65.25 637.01 65.25 C 636.99 66.91 636.98 68.57 636.96 70.23 C 640.29 64.67 648.14 63.47 653.58 66.41 C 657.01 68.23 658.55 72.19 658.67 75.90 C 658.87 82.85 658.69 89.81 658.75 96.77 C 656.98 96.75 655.21 96.73 653.46 96.70 C 653.40 89.39 653.74 82.05 653.31 74.76 C 652.24 68.74 643.64 67.84 639.84 71.74 C 637.79 73.53 637.19 76.37 637.24 78.98 C 637.25 84.89 637.23 90.79 637.28 96.70 C 635.60 96.73 633.92 96.75 632.25 96.77 C 632.24 86.26 632.25 75.76 632.25 65.25 Z" />
<path fill="#ffffff" opacity="1.00" d=" M 672.14 66.16 C 677.70 63.57 685.20 64.85 688.59 70.31 C 688.52 68.62 688.48 66.94 688.47 65.26 C 690.06 65.25 691.64 65.25 693.25 65.25 C 693.26 75.50 693.24 85.75 693.26 96.00 C 693.46 99.70 691.74 103.52 688.57 105.52 C 683.98 108.47 678.00 108.66 672.91 107.06 C 669.33 105.96 666.59 102.91 665.78 99.26 C 667.51 99.25 669.26 99.25 671.01 99.27 C 674.17 105.35 685.21 105.20 687.87 98.74 C 688.57 96.31 688.13 93.73 688.32 91.23 C 684.41 97.94 674.14 98.59 668.94 93.11 C 664.77 88.91 664.23 82.57 664.92 76.99 C 665.59 72.57 668.03 68.20 672.14 66.16 M 675.10 70.25 C 669.02 73.73 668.48 82.64 671.72 88.26 C 674.43 93.05 681.84 93.56 685.40 89.47 C 688.91 85.12 689.21 78.44 686.43 73.65 C 684.30 69.73 679.04 68.36 675.10 70.25 Z" />
<path fill="#ffffff" opacity="1.00" d=" M 702.80 69.88 C 707.90 63.03 720.02 63.13 724.70 70.40 C 727.07 73.85 727.40 78.19 727.28 82.25 C 719.74 82.25 712.21 82.25 704.67 82.25 C 704.54 85.45 705.57 88.82 708.22 90.81 C 712.54 93.95 719.81 92.92 722.15 87.77 C 723.78 87.75 725.42 87.75 727.08 87.75 C 725.48 95.20 716.74 98.36 709.96 96.64 C 704.43 95.47 700.34 90.35 699.66 84.86 C 699.09 79.74 699.38 74.03 702.80 69.88 M 706.63 72.64 C 705.34 74.23 704.92 76.27 704.54 78.23 C 710.42 78.27 716.30 78.25 722.18 78.24 C 721.81 76.29 721.51 74.24 720.28 72.62 C 717.23 68.18 709.71 68.27 706.63 72.64 Z" />
<path fill="#ffffff" opacity="1.00" d=" M 26.04 82.06 C 59.33 82.03 92.62 82.06 125.91 82.04 C 125.81 95.00 125.88 107.95 125.88 120.91 C 92.61 120.86 59.34 120.90 26.07 120.89 C 26.10 107.95 26.15 95.00 26.04 82.06 Z" />
<path fill="#ffffff" opacity="1.00" d=" M 146.23 179.15 C 146.26 146.69 146.06 114.22 146.33 81.76 C 159.41 81.84 172.50 81.82 185.59 81.77 C 185.78 95.86 185.84 109.95 185.61 124.04 C 184.80 139.50 177.39 154.56 165.40 164.42 C 159.11 169.45 152.64 174.26 146.23 179.15 Z" />
<path fill="#ffffff" opacity="1.00" d=" M 243.85 129.76 C 250.76 121.59 265.19 121.69 271.89 130.08 C 273.78 132.24 274.63 135.04 275.39 137.75 C 273.61 137.75 271.84 137.75 270.07 137.74 C 268.39 131.31 261.49 127.50 255.10 128.86 C 249.23 129.76 245.39 135.34 244.51 140.88 C 243.55 146.69 244.03 153.28 247.82 158.05 C 253.45 165.36 267.30 163.71 270.07 154.51 C 271.84 154.50 273.60 154.50 275.37 154.51 C 274.15 159.01 271.48 163.30 267.18 165.40 C 261.38 168.15 254.25 168.29 248.50 165.33 C 242.96 162.28 239.62 156.20 238.97 150.03 C 238.15 143.04 238.97 135.21 243.85 129.76 Z" />
<path fill="#ffffff" opacity="1.00" d=" M 368.00 128.00 C 369.75 128.00 371.50 128.00 373.25 128.00 C 373.25 130.42 373.25 132.83 373.25 135.25 C 375.25 135.25 377.25 135.25 379.25 135.25 C 379.25 136.32 379.25 138.44 379.25 139.50 C 377.25 139.50 375.25 139.50 373.25 139.50 C 373.32 146.27 373.12 153.06 373.33 159.83 C 373.66 162.76 377.08 162.57 379.26 162.58 C 379.25 164.01 379.24 165.45 379.24 166.88 C 376.25 167.01 372.89 167.37 370.34 165.46 C 368.18 163.64 368.16 160.56 368.01 157.98 C 367.92 151.80 368.11 145.61 367.92 139.43 C 366.53 139.47 365.14 139.50 363.75 139.53 C 363.75 138.46 363.75 136.32 363.75 135.26 C 365.16 135.25 366.58 135.25 368.00 135.25 C 368.00 132.83 368.00 130.41 368.00 128.00 Z" />
<path fill="#ffffff" opacity="1.00" d=" M 542.75 128.00 C 544.49 128.00 546.24 128.00 548.00 128.00 C 548.00 130.42 547.99 132.83 548.00 135.25 C 549.99 135.25 551.98 135.25 553.98 135.24 C 553.99 136.65 554.01 138.06 554.04 139.47 C 552.02 139.49 550.00 139.51 548.00 139.51 C 548.07 146.28 547.87 153.06 548.08 159.83 C 548.40 162.78 551.77 162.53 553.99 162.54 C 553.97 164.00 553.95 165.47 553.92 166.93 C 550.20 167.17 544.85 167.33 543.43 162.98 C 542.01 155.26 543.08 147.31 542.75 139.50 C 541.32 139.50 539.91 139.50 538.50 139.50 C 538.50 138.44 538.50 136.31 538.50 135.25 C 539.91 135.25 541.32 135.25 542.74 135.25 C 542.74 132.83 542.74 130.42 542.75 128.00 Z" />
<path fill="#ffffff" opacity="1.00" d=" M 286.09 140.33 C 287.57 136.28 291.86 134.28 296.00 134.96 C 296.00 136.62 296.00 138.28 296.01 139.95 C 292.19 138.94 287.41 140.73 286.75 145.00 C 286.16 152.23 286.67 159.52 286.50 166.77 C 284.81 166.75 283.12 166.72 281.44 166.67 C 281.57 156.20 281.46 145.72 281.50 135.25 C 283.09 135.25 284.69 135.25 286.30 135.26 C 286.26 136.95 286.19 138.64 286.09 140.33 Z" />
<path fill="#ffffff" opacity="1.00" d=" M 298.46 135.24 C 300.26 135.25 302.06 135.24 303.87 135.23 C 306.86 144.06 309.87 152.89 312.78 161.75 C 315.73 152.93 318.69 144.11 321.59 135.27 C 323.40 135.25 325.22 135.24 327.03 135.23 C 322.97 146.18 318.95 157.14 314.91 168.10 C 313.77 171.00 312.64 174.06 310.34 176.27 C 307.95 178.21 304.69 178.37 301.75 178.15 C 301.74 176.71 301.75 175.26 301.75 173.82 C 303.29 173.66 304.95 173.94 306.42 173.32 C 308.60 171.88 309.47 169.20 310.02 166.77 C 306.38 156.20 302.32 145.75 298.46 135.24 Z" />
<path fill="#ffffff" opacity="1.00" d=" M 336.42 140.35 C 340.94 133.04 353.11 133.10 357.55 140.47 C 361.86 147.44 361.53 157.66 355.70 163.69 C 350.48 168.79 340.82 168.09 336.75 161.87 C 336.74 167.00 336.75 172.12 336.75 177.25 C 335.08 177.25 333.41 177.25 331.75 177.25 C 331.75 163.25 331.75 149.25 331.75 135.25 C 333.34 135.25 334.93 135.25 336.52 135.26 C 336.50 136.95 336.47 138.65 336.42 140.35 M 342.21 140.23 C 335.94 143.64 335.34 152.77 338.69 158.45 C 341.34 163.46 349.20 163.90 352.57 159.44 C 355.83 155.21 355.95 149.03 353.77 144.30 C 351.86 140.04 346.36 138.21 342.21 140.23 Z" />
<path fill="#ffffff" opacity="1.00" d=" M 392.49 135.67 C 398.64 133.72 406.43 135.33 409.83 141.24 C 413.23 147.30 413.24 155.51 409.36 161.34 C 403.85 169.56 389.51 168.85 385.11 159.88 C 381.04 151.72 382.90 138.96 392.49 135.67 M 393.37 140.32 C 387.59 143.66 387.29 151.87 389.56 157.46 C 391.99 163.52 401.35 164.30 404.96 158.98 C 407.65 154.61 407.68 148.87 405.73 144.22 C 403.69 139.63 397.66 138.30 393.37 140.32 Z" />
<path fill="#ffffff" opacity="1.00" d=" M 418.06 144.23 C 419.38 134.40 433.06 132.18 439.68 138.03 C 441.92 140.03 442.69 143.14 442.52 146.06 C 442.49 152.95 442.50 159.85 442.50 166.75 C 440.90 166.75 439.31 166.75 437.72 166.74 C 437.74 164.90 437.77 163.06 437.85 161.22 C 434.38 167.18 425.84 168.88 420.25 165.00 C 415.78 161.88 415.39 154.23 420.10 151.15 C 425.27 147.84 431.72 148.70 437.57 148.20 C 437.45 145.66 437.73 142.48 435.39 140.81 C 431.33 138.15 424.58 139.18 422.92 144.24 C 421.30 144.24 419.68 144.24 418.06 144.23 M 424.83 153.60 C 421.40 154.67 420.91 159.96 424.13 161.58 C 428.03 163.51 433.58 162.74 436.18 159.00 C 437.63 157.06 437.44 154.50 437.58 152.21 C 433.33 152.62 428.91 152.20 424.83 153.60 Z" />
<path fill="#ffffff" opacity="1.00" d=" M 452.04 138.05 C 458.23 132.25 471.82 134.39 472.68 143.98 C 471.08 143.99 469.49 144.00 467.90 143.99 C 466.89 138.90 460.25 138.01 456.37 140.24 C 453.89 141.56 453.69 145.59 456.35 146.84 C 461.11 149.38 467.18 148.92 471.44 152.56 C 474.50 156.12 473.60 162.26 469.47 164.63 C 462.49 169.43 449.74 167.36 448.29 157.79 C 450.00 157.76 451.72 157.74 453.44 157.73 C 454.55 163.23 461.54 163.82 465.78 161.85 C 468.22 160.74 469.04 156.90 466.69 155.29 C 462.18 152.74 456.42 153.18 452.22 149.95 C 448.52 147.18 448.49 140.97 452.04 138.05 Z" />
<path fill="#ffffff" opacity="1.00" d=" M 479.67 140.40 C 484.51 131.79 501.17 133.32 502.19 143.99 C 500.59 144.00 499.00 144.00 497.42 144.00 C 496.35 138.79 489.36 137.89 485.54 140.50 C 483.18 142.04 483.49 145.87 486.08 147.01 C 490.72 149.27 496.45 148.99 500.61 152.31 C 503.95 155.58 503.30 161.80 499.37 164.35 C 492.43 169.53 479.26 167.51 477.79 157.76 C 479.51 157.75 481.23 157.75 482.97 157.76 C 484.03 163.11 490.75 163.76 494.95 162.00 C 497.79 161.05 498.69 156.57 495.85 155.09 C 491.44 152.83 486.03 153.07 481.93 150.12 C 478.91 147.97 478.15 143.66 479.67 140.40 Z" />
<path fill="#ffffff" opacity="1.00" d=" M 510.69 139.72 C 515.86 133.02 527.81 133.20 532.45 140.41 C 534.83 143.86 535.14 148.19 535.03 152.25 C 527.47 152.27 519.91 152.20 512.36 152.29 C 512.53 154.32 512.59 156.48 513.76 158.25 C 516.95 164.19 527.12 164.02 529.89 157.76 C 531.53 157.75 533.18 157.75 534.84 157.76 C 533.04 165.88 522.99 168.84 515.90 166.09 C 510.66 164.10 507.32 158.53 507.25 153.02 C 506.93 148.40 507.57 143.36 510.69 139.72 M 512.29 148.22 C 518.17 148.27 524.06 148.27 529.95 148.22 C 529.69 143.89 526.67 139.39 521.95 139.37 C 516.76 138.66 512.58 143.32 512.29 148.22 Z" />
<path fill="#ffffff" opacity="1.00" d=" M 562.32 138.26 C 568.42 132.16 582.30 134.31 583.19 143.99 C 581.59 144.00 580.00 144.00 578.42 144.00 C 577.35 138.77 570.33 137.89 566.51 140.52 C 564.52 141.84 564.28 145.27 566.45 146.54 C 571.06 149.46 577.30 148.75 581.63 152.33 C 584.94 155.61 584.29 161.80 580.37 164.35 C 573.43 169.53 560.27 167.52 558.79 157.77 C 560.51 157.75 562.23 157.75 563.97 157.76 C 565.02 163.11 571.73 163.75 575.93 162.01 C 578.76 161.07 579.70 156.61 576.88 155.10 C 572.45 152.82 567.01 153.08 562.90 150.10 C 559.17 147.43 558.87 141.27 562.32 138.26 Z" />
<path fill="#ffffff" opacity="1.00" d=" M 35.00 151.73 C 32.98 148.52 30.85 145.21 30.11 141.44 C 41.96 141.59 53.82 141.51 65.67 141.48 C 65.66 154.06 65.70 166.63 65.65 179.21 C 54.74 170.91 42.86 163.22 35.00 151.73 Z" />
<path fill="#ffffff" opacity="1.00" d=" M 86.32 195.00 C 86.31 177.16 86.30 159.32 86.32 141.48 C 99.41 141.55 112.49 141.51 125.58 141.50 C 125.53 159.34 125.61 177.18 125.54 195.03 C 119.01 199.98 112.48 204.92 106.01 209.95 C 99.34 205.12 92.87 200.00 86.32 195.00 Z" />
</g>
</svg>
