<?xml version="1.0" encoding="UTF-8" ?>
<!DOCTYPE svg PUBLIC "-//W3C//DTD SVG 1.1//EN" "http://www.w3.org/Graphics/SVG/1.1/DTD/svg11.dtd">
<svg width="757pt" height="221pt" viewBox="0 0 757 221" version="1.1" xmlns="http://www.w3.org/2000/svg">
<g id="#255ff0ff">
<path fill="#255ff0" opacity="1.00" d=" M 26.08 22.17 C 59.25 22.16 92.41 22.19 125.58 22.16 C 125.57 35.31 125.53 48.46 125.59 61.61 C 92.42 61.57 59.24 61.67 26.06 61.53 C 26.14 48.41 26.09 35.29 26.08 22.17 Z" />
<path fill="#255ff0" opacity="1.00" d=" M 146.26 179.26 C 146.19 146.76 146.15 114.27 146.28 81.78 C 159.39 81.83 172.50 81.82 185.62 81.78 C 185.74 95.89 185.87 109.99 185.60 124.10 C 184.93 136.46 180.07 148.60 171.98 157.97 C 164.54 166.35 154.78 172.12 146.26 179.26 Z" />
<path fill="#255ff0" opacity="1.00" d=" M 29.85 141.54 C 41.79 141.46 53.73 141.57 65.67 141.49 C 65.66 154.09 65.70 166.70 65.65 179.31 C 51.98 168.72 35.84 158.72 29.85 141.54 Z" />
<path fill="#255ff0" opacity="1.00" d=" M 86.31 194.96 C 86.32 177.14 86.32 159.32 86.31 141.49 C 99.40 141.53 112.49 141.52 125.57 141.50 C 125.49 159.23 125.67 176.97 125.49 194.70 C 119.35 200.21 112.39 204.77 105.97 209.96 C 99.35 205.05 92.81 200.03 86.31 194.96 Z" />
</g>
<g id="#21d59cff">
<path fill="#21d59c" opacity="1.00" d=" M 146.00 22.11 C 159.22 22.24 172.45 22.14 185.67 22.16 C 185.80 35.40 185.78 48.65 185.69 61.89 C 172.46 61.91 159.23 61.84 146.00 61.93 C 146.00 48.65 146.00 35.38 146.00 22.11 Z" />
<path fill="#21d59c" opacity="1.00" d=" M 26.05 82.05 C 59.34 82.04 92.62 82.07 125.91 82.04 C 125.82 94.99 125.87 107.95 125.88 120.91 C 92.61 120.86 59.34 120.90 26.07 120.89 C 26.10 107.95 26.14 95.00 26.05 82.05 Z" />
</g>
<g id="#4d4d4dff">
<path fill="#4d4d4d" opacity="1.00" d=" M 566.25 52.75 C 567.91 52.75 569.57 52.75 571.25 52.75 C 571.21 58.59 571.35 64.43 571.14 70.26 C 575.99 62.21 590.70 63.23 592.84 72.95 C 593.78 80.83 593.00 88.83 593.24 96.75 C 591.57 96.75 589.91 96.74 588.25 96.74 C 588.05 89.52 588.68 82.24 587.94 75.05 C 586.41 66.98 573.09 67.92 571.70 75.67 C 570.70 82.63 571.51 89.73 571.25 96.75 C 569.57 96.74 567.91 96.75 566.25 96.75 C 566.25 82.08 566.26 67.42 566.25 52.75 Z" />
<path fill="#4d4d4d" opacity="1.00" d=" M 243.90 56.91 C 250.32 52.40 260.15 52.49 265.92 58.07 C 268.07 60.07 268.78 62.99 269.39 65.75 C 267.65 65.75 265.91 65.75 264.17 65.74 C 262.73 57.82 251.63 56.28 246.47 61.39 C 244.30 63.75 244.40 68.04 247.32 69.76 C 253.50 73.46 261.73 72.73 267.18 77.85 C 271.87 82.85 270.03 91.92 264.05 95.09 C 257.77 98.46 249.42 98.45 243.43 94.42 C 240.26 92.30 238.75 88.66 238.09 85.03 C 239.84 85.01 241.59 85.01 243.34 85.00 C 245.04 93.19 256.44 95.00 262.25 90.16 C 265.25 87.74 264.96 82.44 261.59 80.48 C 255.76 77.02 248.16 77.66 242.81 73.26 C 237.78 69.13 238.69 60.50 243.90 56.91 Z" />
<path fill="#4d4d4d" opacity="1.00" d=" M 394.35 54.26 C 396.63 52.34 400.62 55.14 399.30 57.91 C 398.55 60.87 393.90 60.65 393.18 57.81 C 392.56 56.45 393.33 55.14 394.35 54.26 Z" />
<path fill="#4d4d4d" opacity="1.00" d=" M 472.00 54.50 C 480.75 54.50 489.50 54.50 498.25 54.50 C 498.24 56.08 498.24 57.67 498.25 59.25 C 491.25 59.25 484.25 59.25 477.25 59.25 C 477.25 63.75 477.25 68.25 477.25 72.75 C 483.91 72.75 490.58 72.75 497.25 72.75 C 497.24 74.33 497.24 75.91 497.26 77.49 C 490.58 77.51 483.91 77.49 477.24 77.51 C 477.25 82.34 477.25 87.16 477.24 91.99 C 484.25 92.01 491.25 91.99 498.25 92.00 C 498.24 93.58 498.24 95.17 498.25 96.75 C 489.50 96.75 480.75 96.74 472.01 96.75 C 471.99 82.67 472.00 68.58 472.00 54.50 Z" />
<path fill="#4d4d4d" opacity="1.00" d=" M 408.25 58.00 C 410.00 58.00 411.75 58.00 413.50 58.01 C 413.50 60.42 413.50 62.83 413.50 65.24 C 415.50 65.25 417.51 65.26 419.51 65.27 C 419.51 66.33 419.50 68.44 419.49 69.50 C 417.49 69.50 415.49 69.50 413.50 69.51 C 413.62 76.30 413.26 83.12 413.64 89.91 C 413.89 92.88 417.45 92.35 419.54 92.69 C 419.48 94.13 419.44 95.57 419.43 97.02 C 416.46 96.89 413.10 97.38 410.58 95.45 C 408.46 93.65 408.42 90.62 408.27 88.06 C 408.20 81.88 408.28 75.70 408.25 69.51 C 406.83 69.51 405.41 69.50 404.00 69.49 C 404.00 68.08 404.00 66.66 404.01 65.25 C 405.42 65.25 406.83 65.25 408.25 65.25 C 408.25 62.83 408.25 60.42 408.25 58.00 Z" />
<path fill="#4d4d4d" opacity="1.00" d=" M 276.60 71.62 C 280.81 63.48 293.81 62.46 299.24 69.78 C 302.04 73.28 302.33 77.94 302.33 82.25 C 294.74 82.26 287.16 82.23 279.57 82.26 C 279.86 84.67 279.98 87.30 281.66 89.23 C 285.48 94.29 294.41 93.49 297.27 87.78 C 298.90 87.77 300.53 87.76 302.16 87.76 C 299.49 98.41 283.35 100.28 277.37 91.59 C 273.43 85.86 273.52 77.71 276.60 71.62 M 281.64 72.61 C 280.36 74.22 280.03 76.31 279.44 78.22 C 285.38 78.28 291.33 78.26 297.28 78.23 C 296.68 75.88 296.25 73.29 294.40 71.55 C 290.89 68.25 284.50 68.66 281.64 72.61 Z" />
<path fill="#4d4d4d" opacity="1.00" d=" M 308.41 72.43 C 312.23 63.93 324.86 62.38 331.20 68.84 C 333.04 70.59 333.71 73.12 334.52 75.44 C 332.89 75.48 331.26 75.50 329.64 75.52 C 327.97 69.28 319.32 67.35 314.94 71.90 C 310.75 76.65 310.67 84.60 314.52 89.57 C 318.61 94.51 327.71 93.12 329.62 86.77 C 331.26 86.77 332.89 86.77 334.54 86.78 C 332.79 97.09 318.58 100.28 311.42 93.56 C 305.84 88.25 305.53 79.17 308.41 72.43 Z" />
<path fill="#4d4d4d" opacity="1.00" d=" M 339.75 65.26 C 341.49 65.25 343.24 65.25 344.99 65.25 C 345.12 72.47 344.77 79.71 345.14 86.93 C 345.65 91.49 351.00 93.44 354.96 92.23 C 358.73 91.44 361.22 87.70 361.17 83.96 C 361.41 77.73 361.17 71.49 361.25 65.25 C 362.91 65.25 364.57 65.25 366.24 65.25 C 366.26 75.75 366.25 86.25 366.25 96.75 C 364.65 96.74 363.06 96.74 361.46 96.74 C 361.49 95.01 361.54 93.28 361.60 91.55 C 358.12 97.18 350.14 98.64 344.58 95.39 C 341.33 93.46 339.84 89.55 339.78 85.91 C 339.66 79.03 339.80 72.14 339.75 65.26 Z" />
<path fill="#4d4d4d" opacity="1.00" d=" M 378.32 70.17 C 380.06 66.28 384.08 64.37 388.24 64.88 C 388.24 66.52 388.25 68.16 388.27 69.80 C 384.42 69.15 379.64 70.65 379.01 75.03 C 378.37 82.24 378.93 89.51 378.75 96.75 C 377.08 96.75 375.41 96.75 373.75 96.75 C 373.74 86.25 373.75 75.75 373.75 65.25 C 375.35 65.26 376.96 65.26 378.57 65.26 C 378.50 66.90 378.41 68.53 378.32 70.17 Z" />
<path fill="#4d4d4d" opacity="1.00" d=" M 393.76 65.25 C 395.41 65.25 397.08 65.25 398.75 65.25 C 398.75 75.74 398.74 86.24 398.75 96.73 C 397.09 96.75 395.43 96.76 393.78 96.79 C 393.71 86.28 393.76 75.76 393.76 65.25 Z" />
<path fill="#4d4d4d" opacity="1.00" d=" M 422.97 65.23 C 424.77 65.24 426.58 65.26 428.40 65.28 C 431.35 74.09 434.36 82.88 437.29 91.70 C 440.25 82.89 443.17 74.06 446.13 65.24 C 447.92 65.24 449.73 65.25 451.53 65.25 C 446.74 77.64 442.64 90.31 437.48 102.55 C 435.80 107.14 430.75 108.77 426.25 108.24 C 426.25 106.80 426.25 105.36 426.26 103.92 C 428.04 103.58 430.26 104.08 431.71 102.71 C 433.35 101.16 433.82 98.85 434.70 96.87 C 430.75 86.33 426.90 75.77 422.97 65.23 Z" />
<path fill="#4d4d4d" opacity="1.00" d=" M 503.00 65.26 C 504.89 65.25 506.79 65.25 508.69 65.25 C 511.22 69.24 513.80 73.20 516.35 77.18 C 518.92 73.20 521.46 69.22 524.01 65.24 C 525.89 65.25 527.78 65.26 529.68 65.27 C 526.11 70.43 522.59 75.62 519.00 80.75 C 522.58 86.07 526.09 91.43 529.58 96.80 C 527.38 96.38 524.06 97.82 522.90 95.18 C 520.60 91.68 518.48 88.05 516.17 84.56 C 513.63 88.63 511.02 92.65 508.48 96.72 C 506.55 96.74 504.63 96.74 502.73 96.73 C 506.36 91.49 509.97 86.23 513.55 80.95 C 510.05 75.71 506.47 70.52 503.00 65.26 Z" />
<path fill="#4d4d4d" opacity="1.00" d=" M 534.43 72.38 C 538.26 63.95 550.79 62.41 557.13 68.77 C 559.02 70.54 559.72 73.10 560.52 75.46 C 558.87 75.48 557.24 75.48 555.61 75.49 C 553.93 68.97 544.57 67.29 540.49 72.41 C 536.82 77.20 536.79 84.65 540.43 89.46 C 544.49 94.55 553.71 93.14 555.65 86.74 C 557.27 86.75 558.90 86.77 560.54 86.80 C 558.78 97.07 544.65 100.26 537.47 93.62 C 531.83 88.30 531.51 79.15 534.43 72.38 Z" />
<path fill="#4d4d4d" opacity="1.00" d=" M 600.48 74.21 C 601.94 64.77 614.61 62.34 621.47 67.44 C 623.82 69.15 625.06 72.07 624.98 74.95 C 625.06 82.21 624.96 89.48 625.00 96.75 C 623.40 96.74 621.81 96.74 620.22 96.75 C 620.24 94.93 620.27 93.11 620.34 91.30 C 616.79 97.05 608.55 98.87 602.94 95.13 C 598.39 92.15 597.81 84.55 602.37 81.31 C 607.57 77.78 614.20 78.73 620.15 78.19 C 619.84 75.72 620.23 72.66 618.05 70.92 C 613.90 68.01 607.23 69.27 605.30 74.25 C 603.68 74.24 602.08 74.23 600.48 74.21 M 606.91 83.82 C 603.81 85.11 603.61 89.93 606.51 91.53 C 610.51 93.56 616.32 92.74 618.83 88.76 C 620.10 86.83 619.85 84.39 620.17 82.20 C 615.76 82.64 611.08 82.10 606.91 83.82 Z" />
<path fill="#4d4d4d" opacity="1.00" d=" M 632.25 65.25 C 633.83 65.25 635.41 65.25 637.01 65.25 C 636.99 66.87 636.96 68.48 636.95 70.10 C 641.63 62.57 655.49 63.05 658.03 72.13 C 659.56 80.22 658.38 88.56 658.75 96.75 C 656.99 96.75 655.23 96.74 653.49 96.73 C 653.45 89.88 653.60 83.02 653.46 76.16 C 653.51 72.63 650.57 69.45 646.98 69.48 C 642.50 68.74 637.78 72.03 637.41 76.64 C 636.99 83.33 637.38 90.05 637.25 96.75 C 635.57 96.74 633.91 96.75 632.25 96.75 C 632.25 86.25 632.25 75.75 632.25 65.25 Z" />
<path fill="#4d4d4d" opacity="1.00" d=" M 668.72 68.76 C 673.92 63.02 684.26 63.74 688.63 70.18 C 688.56 68.54 688.50 66.90 688.46 65.26 C 690.05 65.26 691.64 65.25 693.25 65.25 C 693.22 75.83 693.31 86.41 693.22 96.99 C 693.28 101.76 689.65 105.85 685.19 107.16 C 678.04 109.52 667.68 107.63 665.68 99.23 C 667.58 99.54 670.19 98.48 671.59 100.24 C 674.66 104.27 680.88 104.44 685.06 102.19 C 688.95 99.95 688.24 95.07 688.35 91.30 C 683.76 98.85 671.44 98.45 667.15 90.82 C 663.41 84.14 663.59 74.68 668.72 68.76 M 675.15 70.22 C 669.20 73.53 668.59 82.02 671.35 87.63 C 673.77 92.91 681.66 93.80 685.40 89.47 C 689.07 84.90 689.28 77.76 685.97 72.94 C 683.64 69.52 678.81 68.52 675.15 70.22 Z" />
<path fill="#4d4d4d" opacity="1.00" d=" M 703.27 69.33 C 708.71 62.83 720.77 63.41 725.05 70.95 C 727.15 74.32 727.29 78.40 727.33 82.24 C 719.77 82.24 712.21 82.28 704.65 82.21 C 704.87 84.41 704.84 86.81 706.25 88.66 C 709.78 94.30 719.31 93.72 722.27 87.78 C 723.89 87.77 725.52 87.76 727.17 87.76 C 724.62 97.89 709.76 100.16 703.27 92.67 C 700.33 89.58 699.33 85.19 699.44 81.04 C 699.35 76.87 700.39 72.47 703.27 69.33 M 707.08 72.08 C 705.49 73.75 705.06 76.09 704.44 78.22 C 710.38 78.28 716.33 78.26 722.28 78.23 C 721.67 75.88 721.24 73.27 719.38 71.53 C 716.03 68.43 710.11 68.61 707.08 72.08 Z" />
<path fill="#4d4d4d" opacity="1.00" d=" M 243.80 129.81 C 250.72 121.57 265.23 121.67 271.93 130.13 C 273.78 132.29 274.58 135.08 275.45 137.73 C 273.68 137.74 271.92 137.74 270.16 137.74 C 269.11 135.58 268.19 133.22 266.27 131.66 C 260.61 126.71 250.45 127.91 246.79 134.73 C 243.07 141.46 243.04 150.40 247.04 157.00 C 252.19 165.44 267.07 164.15 270.16 154.52 C 271.92 154.51 273.67 154.51 275.44 154.52 C 274.29 157.73 272.94 161.06 270.25 163.30 C 265.14 167.65 257.65 168.41 251.38 166.53 C 244.65 164.48 240.11 157.92 239.14 151.14 C 238.04 143.85 238.73 135.58 243.80 129.81 Z" />
<path fill="#4d4d4d" opacity="1.00" d=" M 368.00 128.00 C 369.75 128.00 371.49 128.00 373.25 128.00 C 373.24 130.42 373.25 132.84 373.26 135.25 C 375.25 135.25 377.25 135.25 379.25 135.26 C 379.25 136.32 379.25 138.43 379.25 139.49 C 377.25 139.50 375.24 139.50 373.25 139.51 C 373.26 145.34 373.24 151.17 373.22 157.01 C 373.29 158.59 373.09 160.40 374.22 161.69 C 375.69 162.68 377.58 162.40 379.26 162.68 C 379.24 164.10 379.23 165.53 379.23 166.96 C 376.28 166.90 372.96 167.39 370.43 165.52 C 368.20 163.74 368.17 160.62 368.02 158.02 C 367.93 151.85 368.04 145.67 367.99 139.50 C 366.57 139.49 365.16 139.50 363.75 139.50 C 363.75 138.44 363.75 136.32 363.75 135.26 C 365.16 135.25 366.57 135.25 367.99 135.26 C 367.99 132.84 368.00 130.42 368.00 128.00 Z" />
<path fill="#4d4d4d" opacity="1.00" d=" M 542.75 128.00 C 544.49 128.00 546.24 128.00 548.00 128.00 C 547.99 130.42 548.00 132.83 548.00 135.25 C 550.00 135.25 552.00 135.25 554.00 135.25 C 553.98 136.67 553.98 138.09 553.99 139.51 C 551.99 139.50 549.99 139.50 548.00 139.50 C 548.01 145.34 547.99 151.17 547.97 157.01 C 548.04 158.66 547.83 160.62 549.15 161.88 C 550.67 162.56 552.40 162.43 554.03 162.66 C 553.97 164.10 553.93 165.55 553.91 166.99 C 550.20 167.07 544.82 167.36 543.43 162.96 C 542.01 155.24 543.08 147.31 542.75 139.50 C 541.33 139.50 539.91 139.50 538.50 139.50 C 538.50 138.44 538.50 136.32 538.50 135.26 C 539.91 135.25 541.32 135.25 542.74 135.25 C 542.74 132.83 542.75 130.42 542.75 128.00 Z" />
<path fill="#4d4d4d" opacity="1.00" d=" M 286.02 140.16 C 287.81 136.29 291.82 134.37 295.99 134.88 C 295.99 136.53 296.00 138.18 296.01 139.83 C 293.68 139.82 291.05 139.48 289.11 141.09 C 286.97 142.68 286.47 145.51 286.49 148.02 C 286.47 154.26 286.52 160.50 286.50 166.74 C 284.84 166.74 283.17 166.75 281.51 166.76 C 281.49 156.26 281.50 145.75 281.50 135.25 C 283.11 135.26 284.72 135.26 286.33 135.26 C 286.24 136.89 286.14 138.52 286.02 140.16 Z" />
<path fill="#4d4d4d" opacity="1.00" d=" M 298.46 135.25 C 300.26 135.25 302.06 135.24 303.87 135.24 C 306.87 144.06 309.85 152.89 312.79 161.73 C 315.74 152.92 318.69 144.10 321.60 135.27 C 323.41 135.26 325.22 135.24 327.03 135.23 C 322.98 146.13 318.97 157.05 314.96 167.96 C 313.78 170.90 312.68 174.07 310.30 176.27 C 307.95 178.31 304.66 178.16 301.75 178.25 C 301.75 176.80 301.75 175.36 301.75 173.91 C 303.88 173.63 306.65 174.09 307.93 171.90 C 309.15 169.94 310.57 167.46 309.54 165.14 C 305.86 155.17 302.18 145.20 298.46 135.25 Z" />
<path fill="#4d4d4d" opacity="1.00" d=" M 331.75 135.25 C 333.35 135.25 334.95 135.26 336.55 135.26 C 336.49 136.90 336.42 138.53 336.35 140.17 C 341.04 133.42 352.34 133.00 357.10 139.86 C 361.70 146.43 361.63 156.25 356.67 162.62 C 351.78 168.87 340.78 168.55 336.63 161.60 C 336.84 166.81 336.72 172.03 336.75 177.25 C 335.08 177.24 333.41 177.24 331.75 177.25 C 331.75 163.25 331.75 149.25 331.75 135.25 M 342.24 140.21 C 335.76 143.74 335.24 153.35 339.06 159.03 C 342.10 163.78 349.93 163.62 352.96 158.94 C 355.89 154.48 355.98 148.23 353.37 143.61 C 351.28 139.77 346.10 138.37 342.24 140.21 Z" />
<path fill="#4d4d4d" opacity="1.00" d=" M 392.41 135.69 C 398.56 133.72 406.36 135.28 409.79 141.18 C 413.23 147.24 413.24 155.45 409.38 161.31 C 403.90 169.53 389.61 168.87 385.15 159.97 C 381.05 151.81 382.86 139.05 392.41 135.69 M 393.37 140.32 C 387.60 143.64 387.29 151.84 389.54 157.42 C 391.94 163.51 401.34 164.32 404.95 158.99 C 407.66 154.65 407.68 148.88 405.74 144.25 C 403.73 139.63 397.67 138.29 393.37 140.32 Z" />
<path fill="#4d4d4d" opacity="1.00" d=" M 417.98 144.22 C 419.42 134.86 431.81 132.43 438.72 137.26 C 441.23 138.96 442.58 141.99 442.49 144.99 C 442.55 152.24 442.47 159.50 442.50 166.75 C 440.90 166.74 439.30 166.74 437.70 166.74 C 437.74 164.93 437.81 163.13 437.88 161.32 C 434.32 166.93 426.37 168.82 420.72 165.31 C 415.84 162.42 415.20 154.32 420.11 151.15 C 425.30 147.83 431.79 148.71 437.64 148.19 C 437.36 145.63 437.72 142.39 435.30 140.74 C 431.11 138.10 424.72 139.34 422.80 144.22 C 421.18 144.22 419.58 144.22 417.98 144.22 M 424.58 153.70 C 421.23 154.98 421.05 160.29 424.37 161.72 C 428.25 163.45 433.60 162.68 436.16 159.04 C 437.61 157.08 437.35 154.50 437.66 152.22 C 433.31 152.59 428.75 152.19 424.58 153.70 Z" />
<path fill="#4d4d4d" opacity="1.00" d=" M 450.25 140.27 C 455.26 131.80 471.48 133.41 472.82 143.95 C 471.22 143.96 469.63 143.97 468.05 143.98 C 466.71 139.01 460.29 137.91 456.31 140.29 C 453.92 141.62 453.70 145.54 456.29 146.79 C 461.03 149.41 467.14 148.89 471.39 152.55 C 474.31 155.83 473.76 161.55 470.17 164.12 C 463.21 169.59 449.94 167.63 448.20 157.80 C 449.90 157.77 451.61 157.75 453.32 157.74 C 454.70 163.13 461.42 163.88 465.77 161.85 C 468.23 160.77 469.05 156.87 466.67 155.29 C 462.10 152.74 456.27 153.14 452.06 149.83 C 449.28 147.59 448.71 143.38 450.25 140.27 Z" />
<path fill="#4d4d4d" opacity="1.00" d=" M 479.67 140.42 C 484.56 131.77 501.02 133.35 502.30 143.98 C 500.71 143.98 499.14 143.99 497.56 143.99 C 496.17 138.87 489.42 137.82 485.48 140.53 C 483.51 141.88 483.29 145.31 485.47 146.57 C 490.13 149.43 496.33 148.79 500.66 152.37 C 503.57 155.29 503.44 160.64 500.42 163.46 C 493.69 169.79 479.49 167.95 477.70 157.77 C 479.40 157.76 481.11 157.76 482.83 157.77 C 484.27 163.23 491.29 163.98 495.59 161.65 C 497.97 160.43 498.42 156.40 495.87 155.12 C 491.45 152.82 485.99 153.06 481.87 150.07 C 478.91 147.91 478.16 143.65 479.67 140.42 Z" />
<path fill="#4d4d4d" opacity="1.00" d=" M 510.68 139.72 C 515.86 133.02 527.84 133.19 532.48 140.44 C 534.87 143.88 535.04 148.20 535.08 152.25 C 527.50 152.26 519.91 152.23 512.33 152.26 C 512.61 154.53 512.68 157.00 514.16 158.89 C 517.81 164.27 527.11 163.65 530.00 157.78 C 531.63 157.77 533.27 157.76 534.92 157.77 C 532.64 166.83 520.53 169.58 513.33 164.74 C 509.58 162.12 507.36 157.64 507.26 153.09 C 506.92 148.45 507.57 143.39 510.68 139.72 M 514.93 141.97 C 513.26 143.64 512.86 146.05 512.18 148.21 C 518.14 148.28 524.09 148.28 530.05 148.21 C 529.45 146.18 529.16 143.94 527.75 142.27 C 524.72 138.41 518.19 138.37 514.93 141.97 Z" />
<path fill="#4d4d4d" opacity="1.00" d=" M 560.66 140.45 C 565.52 131.76 582.02 133.34 583.30 143.98 C 581.71 143.98 580.14 143.99 578.56 143.99 C 577.18 138.88 570.48 137.84 566.52 140.50 C 564.52 141.84 564.27 145.31 566.49 146.58 C 571.13 149.43 577.30 148.79 581.63 152.34 C 584.76 155.43 584.39 161.22 580.91 163.93 C 576.37 167.60 569.61 167.96 564.41 165.57 C 561.26 164.13 559.56 160.96 558.70 157.78 C 560.40 157.76 562.11 157.76 563.83 157.77 C 565.28 163.23 572.28 163.98 576.59 161.65 C 578.98 160.44 579.42 156.37 576.85 155.11 C 572.43 152.81 566.99 153.05 562.88 150.08 C 559.92 147.93 559.16 143.68 560.66 140.45 Z" />
</g>
</svg>
