<?xml version="1.0" encoding="UTF-8" ?>
<!DOCTYPE svg PUBLIC "-//W3C//DTD SVG 1.1//EN" "http://www.w3.org/Graphics/SVG/1.1/DTD/svg11.dtd">
<svg width="287pt" height="287pt" viewBox="0 0 287 287" version="1.1" xmlns="http://www.w3.org/2000/svg">
<g id="#ffffffff">
<path fill="#ffffff" opacity="1.00" d=" M 141.26 0.00 L 145.73 0.00 C 172.08 0.45 198.32 8.17 220.51 22.44 C 245.63 38.37 265.61 62.30 276.64 89.94 C 187.87 89.94 99.10 89.94 10.34 89.94 C 19.76 66.54 35.45 45.71 55.40 30.27 C 79.71 11.16 110.37 0.47 141.26 0.00 Z" />
</g>
<g id="#0039a6ff">
<path fill="#0039a6" opacity="1.00" d=" M 0.00 140.35 C 0.49 123.11 3.87 105.94 10.34 89.94 C 99.10 89.94 187.87 89.94 276.64 89.94 C 283.02 105.61 286.34 122.42 287.00 139.31 L 287.00 147.72 C 286.34 164.57 283.03 181.37 276.65 197.01 C 187.87 197.00 99.09 196.99 10.32 197.01 C 3.86 181.02 0.49 163.86 0.00 146.64 L 0.00 140.35 Z" />
</g>
<g id="#d52b1eff">
<path fill="#d52b1e" opacity="1.00" d=" M 10.32 197.01 C 99.09 196.99 187.87 197.00 276.65 197.01 C 264.84 226.70 242.67 252.09 214.93 267.94 C 193.72 280.25 169.25 286.76 144.74 287.00 L 142.28 287.00 C 115.56 286.77 88.93 279.00 66.45 264.53 C 41.31 248.61 21.39 224.63 10.32 197.01 Z" />
</g>
</svg>
